<svg width="60" height="60" viewBox="0 0 60 60" fill="none" xmlns="http://www.w3.org/2000/svg">
<path d="M24.5 48.3327V24.0868C21.7195 23.3535 19.4966 21.8181 17.8313 19.4806C16.166 17.1431 15.3334 14.5382 15.3334 11.666H19C19 14.2021 19.8174 16.3639 21.4521 18.1514C23.0868 19.9389 25.1723 20.8327 27.7084 20.8327H32.2917C33.2084 20.8327 34.0639 21.0007 34.8584 21.3368C35.6528 21.673 36.3709 22.1618 37.0125 22.8035L45.3084 31.0993L42.7417 33.666L35.5 26.4243V48.3327H31.8334V37.3327H28.1667V48.3327H24.5ZM30 18.9993C28.9917 18.9993 28.1285 18.6403 27.4105 17.9223C26.6924 17.2042 26.3334 16.341 26.3334 15.3327C26.3334 14.3243 26.6924 13.4612 27.4105 12.7431C28.1285 12.025 28.9917 11.666 30 11.666C31.0084 11.666 31.8716 12.025 32.5896 12.7431C33.3077 13.4612 33.6667 14.3243 33.6667 15.3327C33.6667 16.341 33.3077 17.2042 32.5896 17.9223C31.8716 18.6403 31.0084 18.9993 30 18.9993Z" fill="#EDEFEF"/>
</svg>
