<svg width="61" height="60" viewBox="0 0 61 60" fill="none" xmlns="http://www.w3.org/2000/svg">
<path d="M32.2334 50.1667V39.1667L28.3834 35.5L26.55 43.5667L13.9 41L14.6334 37.3333L23.4334 39.1667L26.3667 24.3167L23.0667 25.6V31.8333H19.4V23.2167L26.6417 20.1C27.7111 19.6417 28.4979 19.3438 29.0021 19.2063C29.5063 19.0688 29.9722 19 30.4 19C31.0417 19 31.6375 19.1681 32.1875 19.5042C32.7375 19.8403 33.1806 20.2833 33.5167 20.8333L35.35 23.7667C36.1445 25.05 37.2215 26.1042 38.5813 26.9292C39.941 27.7542 41.4917 28.1667 43.2334 28.1667V31.8333C41.2167 31.8333 39.3299 31.4132 37.5729 30.5729C35.816 29.7326 34.3417 28.625 33.15 27.25L32.05 32.75L35.9 36.4167V50.1667H32.2334ZM33.15 18.0833C32.1417 18.0833 31.2785 17.7243 30.5604 17.0062C29.8424 16.2882 29.4834 15.425 29.4834 14.4167C29.4834 13.4083 29.8424 12.5451 30.5604 11.8271C31.2785 11.109 32.1417 10.75 33.15 10.75C34.1584 10.75 35.0216 11.109 35.7396 11.8271C36.4577 12.5451 36.8167 13.4083 36.8167 14.4167C36.8167 15.425 36.4577 16.2882 35.7396 17.0062C35.0216 17.7243 34.1584 18.0833 33.15 18.0833Z" fill="#EDEFEF"/>
</svg>
