<svg width="61" height="60" viewBox="0 0 61 60" fill="none" xmlns="http://www.w3.org/2000/svg">
<path d="M24.7 48.3327V26.516C23.1723 27.0355 22.1792 27.9903 21.7209 29.3806C21.2625 30.7709 21.0334 32.1993 21.0334 33.666H17.3667C17.3667 29.7549 18.5125 26.6382 20.8042 24.316C23.0959 21.9938 26.2278 20.8327 30.2 20.8327C33.2556 20.8327 35.5473 20.0764 37.075 18.5639C38.6028 17.0514 39.3667 14.7521 39.3667 11.666H43.0334C43.0334 14.3549 42.4604 16.7612 41.3146 18.8848C40.1688 21.0084 38.2973 22.5132 35.7 23.3993V48.3327H32.0334V37.3327H28.3667V48.3327H24.7ZM30.2 18.9993C29.1917 18.9993 28.3285 18.6403 27.6104 17.9223C26.8924 17.2042 26.5334 16.341 26.5334 15.3327C26.5334 14.3243 26.8924 13.4612 27.6104 12.7431C28.3285 12.025 29.1917 11.666 30.2 11.666C31.2084 11.666 32.0716 12.025 32.7896 12.7431C33.5077 13.4612 33.8667 14.3243 33.8667 15.3327C33.8667 16.341 33.5077 17.2042 32.7896 17.9223C32.0716 18.6403 31.2084 18.9993 30.2 18.9993Z" fill="#EDEFEF"/>
</svg>
