<svg width="61" height="60" viewBox="0 0 61 60" fill="none" xmlns="http://www.w3.org/2000/svg">
<path d="M25.6668 51.8173L22.4584 49.984L27.9584 40.4507L24.8418 38.6173L22.0918 43.384L18.8834 41.5507L28.3251 25.234C27.164 24.0423 26.2931 22.6826 25.7126 21.1548C25.132 19.627 24.8418 18.0534 24.8418 16.434C24.8418 15.334 24.9793 14.2416 25.2543 13.1569C25.5293 12.0722 25.9723 11.0257 26.5834 10.0173L29.7001 11.8507C29.2723 12.5534 28.9668 13.2791 28.7834 14.0277C28.6001 14.7763 28.5084 15.5479 28.5084 16.3423C28.5084 17.9618 28.9056 19.4819 29.7001 20.9027C30.4945 22.3236 31.6251 23.4618 33.0918 24.3173L37.2168 26.7007C39.1112 27.8007 40.5015 29.3819 41.3876 31.4444C42.2737 33.5069 42.7168 35.4395 42.7168 37.2423C42.7168 38.4034 42.564 39.534 42.2584 40.634C41.9529 41.734 41.5251 42.7729 40.9751 43.7507L37.7668 41.9173C38.1945 41.184 38.5001 40.4354 38.6834 39.6715C38.8668 38.9076 38.9584 38.1284 38.9584 37.334C38.9584 36.3562 38.8209 35.409 38.5459 34.4923C38.2709 33.5757 37.8279 32.7201 37.2168 31.9257L25.6668 51.8173ZM38.1334 24.5007C37.1251 24.5007 36.2619 24.1416 35.5438 23.4236C34.8258 22.7055 34.4668 21.8423 34.4668 20.834C34.4668 19.8257 34.8258 18.9625 35.5438 18.2444C36.2619 17.5263 37.1251 17.1673 38.1334 17.1673C39.1418 17.1673 40.005 17.5263 40.723 18.2444C41.4411 18.9625 41.8001 19.8257 41.8001 20.834C41.8001 21.8423 41.4411 22.7055 40.723 23.4236C40.005 24.1416 39.1418 24.5007 38.1334 24.5007ZM33.5501 15.334C32.7556 15.334 32.0987 15.059 31.5793 14.509C31.0598 13.959 30.8001 13.3173 30.8001 12.584C30.8001 11.7895 31.0751 11.1326 31.6251 10.6132C32.1751 10.0937 32.8168 9.83398 33.5501 9.83398C34.3445 9.83398 35.0015 10.109 35.5209 10.659C36.0404 11.209 36.3001 11.8507 36.3001 12.584C36.3001 13.3784 36.0251 14.0354 35.4751 14.5548C34.9251 15.0743 34.2834 15.334 33.5501 15.334Z" fill="#EDEFEF"/>
</svg>
