<svg width="61" height="60" viewBox="0 0 61 60" fill="none" xmlns="http://www.w3.org/2000/svg">
<path d="M21.4334 50.1667L26.5667 24.3167L23.2667 25.6V31.8333H19.6V23.2167L28.8584 19.275C29.2861 19.0917 29.7368 18.9847 30.2105 18.9542C30.6841 18.9236 31.1348 18.9847 31.5625 19.1375C31.9903 19.2903 32.3952 19.5042 32.7771 19.7792C33.1591 20.0542 33.4723 20.4056 33.7167 20.8333L35.55 23.7667C36.3445 25.05 37.4216 26.1042 38.7813 26.9292C40.141 27.7542 41.6917 28.1667 43.4334 28.1667V31.8333C41.2945 31.8333 39.3848 31.3903 37.7042 30.5042C36.0236 29.6181 34.5875 28.4875 33.3959 27.1125L32.25 32.75L36.1 36.4167V50.1667H32.4334V38.25L28.5834 35.3167L25.2834 50.1667H21.4334ZM33.35 18.0833C32.3417 18.0833 31.4785 17.7243 30.7605 17.0062C30.0424 16.2882 29.6834 15.425 29.6834 14.4167C29.6834 13.4083 30.0424 12.5451 30.7605 11.8271C31.4785 11.109 32.3417 10.75 33.35 10.75C34.3584 10.75 35.2216 11.109 35.9396 11.8271C36.6577 12.5451 37.0167 13.4083 37.0167 14.4167C37.0167 15.425 36.6577 16.2882 35.9396 17.0062C35.2216 17.7243 34.3584 18.0833 33.35 18.0833Z" fill="#EDEFEF"/>
</svg>
